<?xml version="1.0" encoding="UTF-8" standalone="no"?>
<svg width="40px" height="82px" viewBox="0 0 40 82" version="1.1" xmlns="http://www.w3.org/2000/svg" xmlns:xlink="http://www.w3.org/1999/xlink" xmlns:sketch="http://www.bohemiancoding.com/sketch/ns">
    <!-- Generator: Sketch 3.2.1 (9971) - http://www.bohemiancoding.com/sketch -->
    <title>milk_100</title>
    <desc>Created with Sketch.</desc>
    <defs></defs>
    <g id="Page-1" stroke="none" stroke-width="1" fill="none" fill-rule="evenodd" sketch:type="MSPage">
        <g id="milk_100" sketch:type="MSLayerGroup" fill="#000000">
            <g id="Page-1" sketch:type="MSShapeGroup">
                <g id="noun_47927_cc">
                    <path d="M8.75,81.312 L31.25,81.312 C35.903,81.312 39.688,77.527 39.688,72.874 L39.688,72.874 L39.688,72.872 L39.688,25.998 L39.688,25.996 C39.686,20.924 36.689,17.925 33.789,15.024 C31.203,12.439 28.783,9.972 28.495,6.122 C29.556,5.719 30.313,4.699 30.313,3.5 C30.313,1.949 29.051,0.688 27.501,0.688 L12.501,0.688 C10.95,0.688 9.689,1.95 9.689,3.5 C9.689,4.699 10.447,5.719 11.507,6.122 C11.219,9.973 8.799,12.439 6.213,15.024 C3.313,17.924 0.316,20.924 0.314,25.996 L0.314,25.998 L0.314,72.873 C0.314,72.873 0.314,72.873 0.314,72.875 L0.314,72.875 C0.312,77.528 4.097,81.312 8.75,81.312 L8.75,81.312 L8.75,81.312 Z" id="Shape"></path>
                </g>
            </g>
        </g>
    </g>
</svg>