<?xml version="1.0" encoding="UTF-8" standalone="no"?>
<svg width="40px" height="82px" viewBox="0 0 40 82" version="1.1" xmlns="http://www.w3.org/2000/svg" xmlns:xlink="http://www.w3.org/1999/xlink" xmlns:sketch="http://www.bohemiancoding.com/sketch/ns">
    <!-- Generator: Sketch 3.2.1 (9971) - http://www.bohemiancoding.com/sketch -->
    <title>noun_47930_cc</title>
    <desc>Created with Sketch.</desc>
    <defs></defs>
    <g id="Page-1" stroke="none" stroke-width="1" fill="none" fill-rule="evenodd" sketch:type="MSPage">
        <g id="noun_47930_cc" sketch:type="MSLayerGroup" fill="#000000">
            <ellipse id="Oval" sketch:type="MSShapeGroup" cx="10.625" cy="56.938" rx="1.875" ry="2.812"></ellipse>
            <ellipse id="Oval" sketch:type="MSShapeGroup" cx="29.375" cy="56.938" rx="1.875" ry="2.812"></ellipse>
            <path d="M13.752,71 L26.251,71 C26.641,71 27.007,70.726 27.246,70.26 C27.484,69.793 27.559,69.187 27.454,68.623 C27.403,68.338 26.088,61.625 20,61.625 C13.914,61.625 12.599,68.338 12.548,68.623 C12.442,69.187 12.519,69.793 12.756,70.26 C12.991,70.726 13.36,71 13.752,71 L13.752,71 Z" id="Shape" sketch:type="MSShapeGroup"></path>
            <path d="M8.75,81.312 L31.25,81.312 C35.903,81.312 39.688,77.527 39.688,72.874 L39.688,72.874 L39.688,72.872 L39.688,25.998 L39.688,25.996 C39.686,20.924 36.689,17.925 33.789,15.024 C31.203,12.439 28.783,9.972 28.495,6.122 C29.556,5.719 30.313,4.699 30.313,3.5 C30.313,1.949 29.051,0.688 27.501,0.688 L12.501,0.688 C10.95,0.688 9.689,1.95 9.689,3.5 C9.689,4.699 10.447,5.719 11.507,6.122 C11.219,9.973 8.799,12.439 6.213,15.024 C3.313,17.924 0.316,20.924 0.314,25.996 L0.314,25.998 L0.314,72.873 C0.314,72.873 0.314,72.873 0.314,72.875 L0.314,72.875 C0.312,77.528 4.097,81.312 8.75,81.312 L8.75,81.312 Z M12.5,2.562 L27.5,2.562 C28.017,2.562 28.438,2.983 28.438,3.5 C28.438,4.017 28.017,4.438 27.5,4.438 L12.5,4.438 C11.983,4.438 11.562,4.017 11.562,3.5 C11.562,2.983 11.983,2.562 12.5,2.562 L12.5,2.562 Z M7.538,16.351 C10.249,13.637 13.017,10.817 13.368,6.313 L26.632,6.313 C26.984,10.817 29.751,13.637 32.462,16.351 C35.214,19.103 37.813,21.701 37.813,26 L37.813,72.873 C37.813,72.873 37.813,72.873 37.813,72.875 L37.813,72.875 C37.813,76.493 34.869,79.437 31.251,79.437 L8.751,79.437 C5.133,79.437 2.189,76.493 2.189,72.875 L2.189,72.875 L2.189,72.873 L2.189,26 C2.188,21.701 4.786,19.103 7.538,16.351 L7.538,16.351 Z" id="Shape" sketch:type="MSShapeGroup"></path>
        </g>
    </g>
</svg>