<?xml version="1.0" encoding="UTF-8" standalone="no"?>
<svg width="40px" height="82px" viewBox="0 0 40 82" version="1.1" xmlns="http://www.w3.org/2000/svg" xmlns:xlink="http://www.w3.org/1999/xlink" xmlns:sketch="http://www.bohemiancoding.com/sketch/ns">
    <!-- Generator: Sketch 3.2.1 (9971) - http://www.bohemiancoding.com/sketch -->
    <title>noun_47932_cc</title>
    <desc>Created with Sketch.</desc>
    <defs></defs>
    <g id="Page-1" stroke="none" stroke-width="1" fill="none" fill-rule="evenodd" sketch:type="MSPage">
        <g id="noun_47932_cc" sketch:type="MSLayerGroup" fill="#000000">
            <ellipse id="Oval" sketch:type="MSShapeGroup" cx="10.881" cy="56.938" rx="1.875" ry="2.812"></ellipse>
            <ellipse id="Oval" sketch:type="MSShapeGroup" cx="29.631" cy="56.938" rx="1.875" ry="2.812"></ellipse>
            <circle id="Oval" sketch:type="MSShapeGroup" cx="20.256" cy="65.375" r="3.75"></circle>
            <path d="M9.006,81.312 L31.506,81.312 C36.159,81.312 39.944,77.527 39.944,72.874 L39.944,72.874 L39.944,72.872 L39.944,25.998 L39.944,25.996 C39.943,20.924 36.945,17.925 34.045,15.024 C31.46,12.439 29.039,9.972 28.752,6.122 C29.812,5.719 30.569,4.699 30.569,3.5 C30.569,1.949 29.308,0.688 27.757,0.688 L12.757,0.688 C11.206,0.688 9.945,1.95 9.945,3.5 C9.945,4.699 10.704,5.719 11.763,6.122 C11.476,9.973 9.055,12.439 6.47,15.024 C3.57,17.924 0.572,20.924 0.57,25.996 L0.57,25.998 L0.57,72.873 C0.57,72.873 0.57,72.873 0.57,72.875 L0.57,72.875 C0.568,77.528 4.354,81.312 9.006,81.312 L9.006,81.312 Z M12.756,2.562 L27.756,2.562 C28.273,2.562 28.694,2.983 28.694,3.5 C28.694,4.017 28.273,4.438 27.756,4.438 L12.756,4.438 C12.24,4.438 11.818,4.017 11.818,3.5 C11.818,2.983 12.24,2.562 12.756,2.562 L12.756,2.562 Z M7.794,16.351 C10.506,13.637 13.273,10.817 13.624,6.313 L26.889,6.313 C27.241,10.817 30.007,13.637 32.719,16.351 C35.471,19.103 38.069,21.701 38.069,26 L38.069,72.873 C38.069,72.873 38.069,72.873 38.069,72.875 L38.069,72.875 C38.069,76.493 35.126,79.437 31.507,79.437 L9.007,79.437 C5.39,79.437 2.445,76.493 2.445,72.875 L2.445,72.875 L2.445,72.873 L2.445,26 C2.443,21.701 5.042,19.103 7.794,16.351 L7.794,16.351 Z" id="Shape" sketch:type="MSShapeGroup"></path>
        </g>
    </g>
</svg>