<?xml version="1.0" encoding="UTF-8" standalone="no"?>
<svg width="40px" height="82px" viewBox="0 0 40 82" version="1.1" xmlns="http://www.w3.org/2000/svg" xmlns:xlink="http://www.w3.org/1999/xlink" xmlns:sketch="http://www.bohemiancoding.com/sketch/ns">
    <!-- Generator: Sketch 3.2.1 (9971) - http://www.bohemiancoding.com/sketch -->
    <title>noun_47933_cc</title>
    <desc>Created with Sketch.</desc>
    <defs></defs>
    <g id="Page-1" stroke="none" stroke-width="1" fill="none" fill-rule="evenodd" sketch:type="MSPage">
        <g id="noun_47933_cc" sketch:type="MSLayerGroup" fill="#000000">
            <path d="M11.562,65.375 C11.562,65.893 11.981,66.313 12.5,66.313 L20.938,66.313 L20.938,69.125 C20.938,71.192 22.619,72.875 24.688,72.875 C26.757,72.875 28.438,71.192 28.438,69.125 L28.438,65.375 C28.438,64.857 28.019,64.437 27.5,64.437 L12.5,64.437 C11.981,64.438 11.562,64.857 11.562,65.375 L11.562,65.375 Z M24.688,71 C23.655,71 22.813,70.16 22.813,69.125 L22.813,66.313 L26.563,66.313 L26.563,69.125 C26.562,70.16 25.721,71 24.688,71 L24.688,71 Z" id="Shape" sketch:type="MSShapeGroup"></path>
            <path d="M8.087,60.413 C8.271,60.596 8.51,60.687 8.75,60.687 C8.99,60.687 9.229,60.595 9.413,60.413 L10.625,59.201 L11.837,60.413 C12.021,60.596 12.26,60.687 12.5,60.687 C12.74,60.687 12.979,60.595 13.163,60.413 C13.529,60.047 13.529,59.453 13.163,59.087 L11.951,57.875 L13.163,56.663 C13.529,56.297 13.529,55.703 13.163,55.337 C12.797,54.971 12.203,54.971 11.837,55.337 L10.625,56.549 L9.413,55.337 C9.047,54.971 8.453,54.971 8.087,55.337 C7.721,55.703 7.721,56.297 8.087,56.663 L9.299,57.875 L8.087,59.087 C7.721,59.453 7.721,60.047 8.087,60.413 L8.087,60.413 Z" id="Shape" sketch:type="MSShapeGroup"></path>
            <path d="M26.837,60.413 C27.021,60.596 27.26,60.687 27.5,60.687 C27.74,60.687 27.979,60.595 28.163,60.413 L29.375,59.201 L30.587,60.413 C30.771,60.596 31.01,60.687 31.25,60.687 C31.49,60.687 31.729,60.595 31.913,60.413 C32.279,60.047 32.279,59.453 31.913,59.087 L30.701,57.875 L31.913,56.663 C32.279,56.297 32.279,55.703 31.913,55.337 C31.547,54.971 30.953,54.971 30.587,55.337 L29.375,56.549 L28.163,55.337 C27.797,54.971 27.203,54.971 26.837,55.337 C26.471,55.703 26.471,56.297 26.837,56.663 L28.049,57.875 L26.837,59.087 C26.471,59.453 26.471,60.047 26.837,60.413 L26.837,60.413 Z" id="Shape" sketch:type="MSShapeGroup"></path>
            <path d="M8.75,81.312 L31.25,81.312 C35.902,81.312 39.688,77.527 39.688,72.874 L39.688,72.874 L39.688,72.872 L39.688,25.998 L39.688,25.996 C39.686,20.924 36.689,17.925 33.789,15.024 C31.203,12.439 28.782,9.972 28.495,6.122 C29.556,5.719 30.313,4.699 30.313,3.5 C30.313,1.949 29.051,0.688 27.501,0.688 L12.501,0.688 C10.95,0.688 9.689,1.95 9.689,3.5 C9.689,4.699 10.447,5.719 11.507,6.122 C11.22,9.973 8.799,12.439 6.213,15.024 C3.313,17.924 0.316,20.924 0.314,25.996 L0.314,25.998 L0.314,72.873 C0.314,72.873 0.314,72.873 0.314,72.875 L0.314,72.875 C0.312,77.528 4.098,81.312 8.75,81.312 L8.75,81.312 Z M12.5,2.562 L27.5,2.562 C28.017,2.562 28.438,2.983 28.438,3.5 C28.438,4.017 28.017,4.438 27.5,4.438 L12.5,4.438 C11.983,4.438 11.562,4.017 11.562,3.5 C11.562,2.983 11.983,2.562 12.5,2.562 L12.5,2.562 Z M7.306,16.585 C7.646,17.204 7.98,17.777 8.302,18.295 L6.735,23.149 C6.575,23.642 6.846,24.169 7.339,24.328 C7.435,24.359 7.531,24.374 7.627,24.374 C8.023,24.374 8.391,24.121 8.519,23.724 L9.636,20.265 C10.486,21.417 11.26,22.288 11.952,23.063 C12.934,24.164 13.711,25.033 14.363,26.306 C14.656,26.877 14.868,27.998 15.093,29.184 C15.453,31.076 15.903,33.431 16.966,35.507 C17.133,35.831 17.46,36.018 17.801,36.018 C17.946,36.018 18.092,35.985 18.228,35.915 C18.69,35.679 18.873,35.113 18.636,34.653 C17.695,32.815 17.274,30.607 16.935,28.832 C16.673,27.454 16.447,26.263 16.033,25.45 C16.033,25.45 16.033,25.45 16.031,25.448 C16.088,25.45 16.146,25.463 16.201,25.463 C18.071,25.463 19.77,24.593 22.303,23.297 C22.764,23.061 22.948,22.495 22.711,22.035 C22.473,21.576 21.905,21.394 21.449,21.627 C18.159,23.314 16.791,24.015 14.637,23.319 C14.233,22.812 13.808,22.327 13.35,21.814 C12.01,20.312 10.496,18.598 8.684,15.189 C10.992,12.812 13.066,10.179 13.369,6.312 L26.633,6.312 C26.985,10.816 29.751,13.636 32.463,16.35 C35.215,19.102 37.814,21.7 37.814,25.999 L37.814,72.872 C37.814,72.872 37.814,72.872 37.814,72.874 L37.814,72.874 C37.814,76.492 34.87,79.436 31.252,79.436 L8.752,79.436 C5.134,79.436 2.19,76.492 2.19,72.874 L2.19,72.874 L2.19,72.872 L2.19,26 C2.188,21.823 4.641,19.251 7.306,16.585 L7.306,16.585 Z" id="Shape" sketch:type="MSShapeGroup"></path>
        </g>
    </g>
</svg>