<?xml version="1.0" encoding="UTF-8" standalone="no"?>
<svg width="42px" height="2px" viewBox="0 0 42 2" version="1.1" xmlns="http://www.w3.org/2000/svg" xmlns:xlink="http://www.w3.org/1999/xlink" xmlns:sketch="http://www.bohemiancoding.com/sketch/ns">
    <!-- Generator: Sketch 3.2.1 (9971) - http://www.bohemiancoding.com/sketch -->
    <title>Path 6</title>
    <desc>Created with Sketch.</desc>
    <defs></defs>
    <g id="Page-1" stroke="none" stroke-width="1" fill="none" fill-rule="evenodd" sketch:type="MSPage">
        <path d="M0,1 C0,1 1.3125,1.5308085e-17 2.625,0 C3.9375,-1.5308085e-17 5.25,1 5.25,1 C5.25,1 6.5625,2 7.875,2 C9.1875,2 10.5,1 10.5,1 C10.5,1 11.8125,1.5308085e-17 13.125,0 C14.4375,-1.5308085e-17 15.75,1 15.75,1 C15.75,1 17.0625,2 18.375,2 C19.6875,2 21,1 21,1 L21,2 L0,2 L0,1 Z M21,1 C21,1 22.3125,1.5308085e-17 23.625,0 C24.9375,-1.5308085e-17 26.25,1 26.25,1 C26.25,1 27.5625,2 28.875,2 C30.1875,2 31.5,1 31.5,1 C31.5,1 32.8125,1.5308085e-17 34.125,0 C35.4375,-1.5308085e-17 36.75,1 36.75,1 C36.75,1 38.0625,2 39.375,2 C40.6875,2 42,1 42,1 L42,2 L21,2 L21,1 Z" id="Path-6" fill="#000000" sketch:type="MSShapeGroup"></path>
    </g>
</svg>